<?xml version="1.0" encoding="utf-8"?>
<!-- Generator: Adobe Illustrator 26.2.1, SVG Export Plug-In . SVG Version: 6.00 Build 0)  -->
<svg version="1.1" id="Layer_1" xmlns="http://www.w3.org/2000/svg" xmlns:xlink="http://www.w3.org/1999/xlink" x="0px" y="0px"
	 viewBox="0 0 721.1 1075" style="enable-background:new 0 0 721.1 1075;" xml:space="preserve">
<g id="a">
</g>
<g id="b">
	<g id="c">
		<g>
			<path d="M721.1,712c-0.4,167.5-111.2,310.6-271.3,351.8c-31.6,8.1-63.8,11.8-96.5,11.2c-161.4-3.3-303.2-113.6-342.9-274.3
				c-7.9-32-11.3-64.5-10.2-97.5c3.2-103.4,51.6-205.6,139.9-273.8c3.3-2.5,6.7-5,10.1-7.3c2.5-1.7,3.9-3.7,4.6-6.8
				c0.9-4.4,1.5-8.8,1.8-13.3c0.7-14.1,3.3-27.9,6.9-41.6c4.7-18,11.2-35.4,19.1-52.2c1.1-2.3,2.4-3.8,4.8-4.9
				c11.2-5.2,23-8.8,35-11.7c14.9-3.6,30.1-6,45.3-7.9c16.4-1.9,32.8-3.3,49.3-3.9c5.8-0.2,11.5-0.5,17.3-0.7c1,0,1.9,0,2.9,0.2
				c0.2,0,0.6,0.8,0.5,1c-0.3,0.7-0.8,1.4-1.2,2c-10.3,15.5-4.2,38.2,15.3,45.6c1.5,0.6,3.1,0.9,4.6,1.4c2.2,0.7,2.5,1,2.3,3.4
				c-0.4,4.9-1.8,9.4-4.4,13.6c-1.8,2.9-3.7,5.6-5.6,8.4c-3,4.4-5.8,8.8-8,13.7c-2.1,4.5-3.7,9.2-4.3,14.2c-1.2,9,1,17.1,6.2,24.5
				c2.3,3.3,5.1,6.2,8.1,8.8c2.4,2.1,4.9,4.2,7.3,6.3c3.1,2.7,6.1,5.7,8.6,9c3.1,4.1,5.5,8.6,6.8,13.7c1.5,5.8,1.2,11.4-1.5,16.8
				c-1.1,2.3-2.5,4.5-3.7,6.7c-0.5,0.9-0.1,1.7,0.8,1.7c4.3-0.2,8.6-0.5,12.9-0.7c1.3-0.1,2-0.8,2.5-1.9c2.6-5.6,3.9-11.5,3.6-17.7
				c-0.2-4.5-1.2-8.9-2.8-13.1c-2.8-7.4-7-14-12.6-19.7c-2.7-2.7-5.6-5.2-8.4-7.8c-1.9-1.7-3.9-3.3-5.7-5.1
				c-1.7-1.7-3.3-3.5-4.7-5.4c-3.7-5.1-4.7-10.8-3.1-16.9c0.9-3.4,2.2-6.7,3.7-9.9c1.5-3.2,3.4-6.1,5.2-9.2c1.4-2.3,2.9-4.6,4.3-6.9
				c4-6.6,6-13.7,5.7-21.5c-0.2-4.7-0.4-4,3.8-5.1c6-1.6,11.3-4.4,15.6-8.9c5.8-6.2,8.5-13.6,7.1-22c-0.8-5-2.5-9.9-5-14.4
				c-0.5-0.8-1-1.6-1.4-2.5c-0.3-0.6,0.1-1.2,0.8-1.3c0.5,0,1,0,1.4,0c3.2,0.1,6.4,0.2,9.6,0.4c14.8,1,29.7,2,44.5,3.7
				c22.4,2.6,44.7,5.9,66.6,11.4c6.7,1.7,13.2,3.8,19.9,5.5c2.4,0.6,3.8,1.9,4.9,4.1c12.2,25.2,21.2,51.4,25.6,79.1
				c1.2,7.3,2,14.6,2.1,22c0,2.8,1.1,5.3,1.4,8c0.4,4.2,2.7,6.4,5.9,8.6c14.6,10,27.9,21.4,40.5,33.8
				c53.8,53.1,88,116.9,102.3,191.2C719.1,669.8,721.1,692.1,721.1,712L721.1,712z M368.8,876.1l0-0.2c11.8,0.3,23.7,0.6,35.5,0.8
				c5.8,0.1,11.5,0,17.3-0.2c7.8-0.3,15.6-0.9,23.5-1.3c10.1-0.6,20.1-1.6,29.9-4c4.8-1.2,9.7-2.2,14.4-3.7
				c7.9-2.6,13.4-8,15.7-16.2c3.1-11.5,7.9-22.3,13.2-32.8c0.9-1.8,1.9-3.7,2.8-5.6c6-13.2,7.7-26.9,4.9-41.2
				c-1.2-6.2-3.2-12-5.5-17.8c-4.2-10.7-9.7-20.9-14.8-31.2c-5.5-11-12-21.5-19.6-31.2c-2.1-2.6-4.1-5.3-6.1-8
				c-5.1-7.1-5-4.2-0.6-11.8c5.2-9,10-18.2,14-27.8c3.9-9.4,6.2-19.1,7.2-29.2c1.5-14.9,1-29.7-1-44.5c-2.2-15.7-6.1-31-11.4-46
				c-0.8-2.3-1.8-4.5-3-6.5c-4-7.1-9.9-12-17.9-14.3c-13.8-3.9-27.7-7.9-41.5-11.6c-9.3-2.5-18.7-4.5-28.3-5.1
				c-13.2-1-26.5-1.6-39.8-2c-14.9-0.4-29.7-0.4-44.6,0.7c-10.5,0.8-21,1.8-31.4,3.6c-6.8,1.2-13.5,2.4-20.3,3.5
				c-11,1.7-21.7,0.3-31.7-4.8c-2.3-1.2-4.7-1.9-7.2-2.4c-5.2-1.1-10.2-0.4-15.2,0.6c-2.5,0.5-4.8,1.8-6.7,3.5
				c-3.6,3.2-5.8,7.2-6.7,11.9c-0.5,2.5-0.3,4.9,0.7,7c1.9,4.2,4,8.3,7.4,11.7c5.8,5.8,10.1,12.7,13.5,20.3c2.4,5.4,4.3,11,5.8,16.8
				c4.3,16.9,7.7,34,9.1,51.4c1.3,16,0.6,31.9-2.8,47.7c-0.7,3.3-1.4,6.6-1.8,9.9c-0.9,7,0.5,13.7,3.8,19.9c0.8,1.4,1.6,2.7,2.4,4.1
				c2.2,3.8,3.5,7.9,3.9,12.2c0.5,4.7,0.2,9.3-0.5,13.9c-2.6,16-4.2,32-5,48.2c-0.5,10.8,0.5,21.4,3.5,31.8c0.7,2.3,1.5,4.6,2.1,6.9
				c2.9,10.2,1.6,20-3.6,29.1c-1.7,3-3.9,5.9-6.1,8.6c-3,3.6-5.1,7.7-7,12c-1.5,3.5-0.9,6.5,1.4,9.4c2.2,2.8,4.9,5.1,8.1,6.6
				c15.4,7.4,31.4,11.7,48.6,10.6c6.5-0.4,13.1-1,19.6-1.3c12.3-0.6,24.6-1.3,36.9-1.6C345.5,875.9,357.1,876.1,368.8,876.1
				L368.8,876.1z M688,719.6c0.1-13.9-1-28.3-2.8-42.6c-2.9-22.8-8.3-44.9-16.1-66.5c-15.2-42-38-79.5-67.6-112.9
				c-9-10.2-18.7-19.8-28.7-28.9c-3-2.7-5.8-5.5-8.7-8.2c-2.8-2.7-5.9-3.7-9.6-2c-0.7,0.3-1.5,0.6-2.3,0.8c-3.8,1-5.5,3.7-5.6,7.4
				c-0.1,2.2,0.1,4.5,0.5,6.7c2.7,13.2,6.8,26,13.9,37.6c1.2,1.9,2.2,3.9,3.3,5.8c8,13.8,16,27.7,24,41.5c5,8.6,9.7,17.3,13.5,26.5
				c4.1,9.8,7.2,19.9,8.3,30.4c0.7,7.2,1.3,14.3,1.7,21.5c0.4,7.2,0.6,14.4,1,21.6c0.2,4.2,0.8,8.3,1.9,12.3c1.7,6,5.5,10,11.6,11.6
				c1.1,0.3,2.2,0.6,3.2,0.8c2,0.4,3.1,1.5,3.6,3.4c0.3,1.2,0.7,2.5,0.8,3.7c0.4,3.5,0.8,7,0.9,10.5c0.3,13.5-1.5,26.8-4.3,40
				c-4.5,21-11.1,41.4-19.2,61.2c-9.2,22.8-20.2,44.9-31.6,66.7c-10.6,20.3-22.1,40-34.9,59c-9.1,13.4-19,26.1-30.4,37.7
				c-4.9,5-9.7,10.2-14.4,15.4c-2.6,2.8-5,5.8-6.7,9.3c-1,2-1.9,4.1-2.3,6.3c-1.4,8.7,6.4,14.9,14.6,11.7c1.9-0.7,3.7-1.9,5.3-3.2
				c1.7-1.3,3.4-2.4,5.3-3.3c15.7-7.3,30.5-16.1,44.4-26.5c58.7-44,96.9-102,116.6-172.3C684.8,775.6,688.1,748,688,719.6L688,719.6
				z M52.9,607.7c-4.1,0-7.7,1.7-10.6,4.6c-2.5,2.5-4.2,5.6-5.6,8.9c-2.3,5.5-3.6,11.2-4.7,17.1c-1.7,9.3-2.3,18.7-2.6,28.1
				c-0.1,4.2-0.2,8.3-0.5,12.5c-1,12.1-1.7,24.3-1.3,36.4c0.3,9.1,0.9,18.2,1.5,27.3c0.6,8.3,1.9,16.5,3.6,24.6
				c2.4,11.1,5.7,22,9,32.8c9.2,29.8,21.4,58.2,38.4,84.4c6.3,9.8,12.6,19.6,19.1,29.4c6.9,10.4,14.7,20.2,23,29.5
				c18,20.1,38.4,37.5,60.6,52.8c3.5,2.4,7.2,4.7,11,6.8c2.2,1.3,4.6,2.4,7,3.2c1.9,0.7,4,1.2,6.1,1.3c8.1,0.4,13.6-6.3,12-14.1
				c-0.5-2.4-1.4-4.6-2.7-6.6c-1.5-2.3-3.1-4.5-4.9-6.5c-2.9-3.2-5.9-6.3-9-9.3c-5.4-5.2-11-10.3-16.5-15.3
				c-13-11.9-25-24.8-36.1-38.4c-13.9-17-26.5-34.8-37.1-54.1c-14.2-25.8-24.7-53-30.8-81.8c-2.8-13.5-5-27-6.6-40.7
				c-1.7-14.1-2.9-28.3-3.5-42.5c-0.5-13.7-0.7-27.5-1.1-41.2c-0.2-7.5-0.5-15-1-22.5c-0.3-4.1-1-8.2-1.8-12.3
				c-0.5-3-1.8-5.8-3.6-8.3C61.3,609.9,57.6,607.8,52.9,607.7L52.9,607.7z M449.5,964v0.2c3.8,0,7.7,0.2,11.5,0
				c4-0.2,7.9-0.7,11.9-1.2c2.4-0.3,4-1.7,4.8-4.1c0.5-1.5,1.1-3,1.8-4.4c2.3-4.3,2.1-8.6,0.1-12.9c-1.6-3.3-3.1-6.7-5.4-9.6
				c-1.4-1.7-1.8-3.2-0.5-5.2c1.4-2.1,2.4-4.6,2.7-7.1c0.8-5.8,0-11.5-2-17c-0.7-1.9-2-3.3-4-3.8c-3.5-0.9-7.1-2.1-10.7-2.6
				c-7.1-1.1-14.4-1.1-21.5,0.2c-3.4,0.6-6.6,0.9-9.9-0.5c-1.2-0.5-2.5-0.3-3.7,0.3c-1.5,0.8-2.1,2.6-1.3,4.1c0.3,0.6,0.6,1.1,1,1.6
				c2.2,2.5,3.2,5.5,3.8,8.7c1.1,5,1.7,10.1,0.5,15.2c-0.4,1.6-0.5,3.2,0.4,4.7c1.5,2.5,1.2,5.2,0.7,7.9c-0.6,3.3-1,6.8-0.2,10
				c1,3.8,0.9,7.1-1.6,10.3c-1.2,1.5-0.6,3,1.2,3.9c2.6,1.4,5.4,2,8.3,1.9C441.6,964.3,445.5,964.1,449.5,964L449.5,964z
				 M384.1,919.8c0.1-6.6,0.2-13.1,0.4-19.7c0-1.3,0-2.6,0-3.8c0-1.3-0.8-2.1-1.9-2.4c-0.8-0.2-1.6-0.4-2.3-0.4
				c-4.2-0.1-8.3-0.2-12.5-0.1c-1.9,0.1-3.8,0.6-5.6,1.1c-1.7,0.5-2.4,2.3-1.4,3.9c0.4,0.7,0.9,1.3,1.5,1.8c2,1.4,2.7,3.5,2.9,5.8
				c0.4,3.5,0.7,7,1.4,10.5c0.6,2.9-0.1,5.3-1.7,7.7c-0.7,1-1.5,2.1-2,3.3c-0.3,0.6-0.1,1.5,0,2.3c0.1,0.4,0.4,0.9,0.7,1.2
				c2.5,2.6,3,5.4,1.9,8.8c-0.8,2.4-0.8,5-0.4,7.6c0.8,5,2.9,9.1,7.5,11.6c1.3,0.7,2.3,1.7,3.6,2.4c1.7,0.9,3.3,2,5.1,2.5
				c9,2.5,17.7,1.2,26-2.9c3.8-1.9,6.1-5,6.8-9.3c0.6-3.5,1.3-6.9,2-10.3c1-4.9,1.4-9.8,0.9-14.8c-0.2-1.9,0-3.8,0.1-5.7
				c0.3-5.9,0.6-11.8,0.9-17.7c0.1-1.4,0.1-2.9-0.1-4.3c-0.2-1.7-1.1-3-2.8-3.6c-1.2-0.4-2.5-0.7-3.7-0.7c-2.9-0.1-5.8,0-8.6,0.1
				c-4.1,0.2-4.8,1-5,5.3c-0.4,8.5,0.4,16.9,1.4,25.3c0.7,5.5,1,11.1,1.4,16.7c0.2,2.8-0.6,5.4-2.2,7.7c-1.8,2.7-4.5,3.6-7.5,2.2
				c-4.1-1.9-6.5-5-6.5-9.7C384.4,934.5,384.2,927.1,384.1,919.8L384.1,919.8z M267.1,963.9L267.1,963.9c2.1,0.1,4.2,0,6.2,0.1
				c4.5,0.2,8.9-0.1,13.4-0.6c1.6-0.2,3.1-0.6,4.7-1c1.5-0.4,2.5-1.4,3-2.8c1-2.4,2.1-4.7,2.9-7.1c0.5-1.3,0.8-2.8,0.9-4.2
				c0.2-1.9-0.1-3.9-1-5.6c-1.7-3.3-3.3-6.5-5.1-9.8c-0.7-1.3-2.1-2.4-2.2-3.6c-0.1-1.2,1-2.6,1.5-3.9c0.7-1.8,1.5-3.5,1.9-5.4
				c1.3-6,0.2-11.7-1.8-17.4c-0.7-1.9-1.9-3.3-3.9-3.9c-3.4-0.9-6.7-2.1-10.2-2.6c-7.8-1.2-15.6-1.1-23.4,0.3
				c-2.6,0.5-5.1,0.7-7.5-0.4c-0.4-0.2-0.9-0.3-1.4-0.4c-1.7-0.3-3.2-0.1-4.3,1.3c-0.9,1.1-0.8,2.6,0.4,4.4c0.2,0.3,0.4,0.5,0.6,0.8
				c1.8,2.2,2.7,4.7,3.3,7.4c1.2,5.2,1.7,10.4,0.8,15.7c-0.3,2.1-0.4,4.1,0.6,6.1c0.8,1.5,0.8,3.1,0.6,4.7c-0.2,2.1-0.5,4.1-0.6,6.2
				c-0.1,1.9-0.3,3.9,0.2,5.7c1.2,4.1,0.9,7.8-1.9,11.2c-0.8,1-0.4,2.2,0.6,2.9c0.7,0.4,1.4,0.9,2.1,1.2c2.4,1,4.9,1.4,7.5,1.2
				C259.1,964.2,263.1,964.1,267.1,963.9L267.1,963.9z M527.4,413.7c2-0.3,3.6-0.3,5.1-0.7c3.7-1.1,5.8-4.1,5.5-8
				c-0.1-1.3-0.4-2.5-0.8-3.7c-0.7-2-1.5-3.9-2.4-5.7c-3-5.8-4.6-11.9-5.4-18.3c-0.8-6.5-2.1-12.9-3.7-19.3
				c-3.4-13.2-8.5-25.8-13.4-38.5c-0.4-1-1-2-1.7-2.9c-2-2.3-4.5-2.9-7.4-2.2c-2.6,0.7-4.6,3.1-4.7,6c-0.1,1.6,0.1,3.2,0.4,4.8
				c0.3,1.6,0.8,3.1,1.2,4.6c2.2,7.2,4.4,14.4,6.6,21.6c5.1,16.7,6.3,33.6,3,50.7c-0.1,0.6-0.3,1.3-0.3,1.9c0,1.7,0.4,3.3,1.7,4.3
				c1.4,1.1,2.8,2.3,4.4,2.8C519.5,412.2,523.6,412.9,527.4,413.7L527.4,413.7z M324,964.6c3.1,0.2,5.8,0.4,8.5,0.5
				c1.8,0.1,3.5,0.1,5.3-0.1c4.6-0.4,9.2-0.8,13.8-1.2c1.3-0.1,2.6-0.1,3.8-0.3c1.1-0.2,2.2-0.5,3.2-0.9c1.1-0.4,1.8-1.3,2-2.5
				c0.1-0.9,0.2-1.9,0.1-2.9c-0.1-1.2-0.7-2.2-1.9-2.5c-4.6-1.4-9.2-2.8-14.1-1.4c-1.2,0.3-2.5,0.5-3.8,0.5c-4.5,0-9,0-13.4,0
				c-2.5-0.1-3.3-0.9-3.3-3.6c-0.1-3.7,0-7.4-0.1-11c-0.1-2.8,0.5-5.4,1.7-7.9c0.6-1.3,1-2.7,1.6-4c0.4-1.2,0.3-2.3-0.5-3.1
				c-2.1-2.1-2.6-4.8-2.4-7.5c0.2-5.1,0.6-10.2,1.1-15.3c0.1-1.4,0.9-2.7,1.4-4.1c0.3-0.9,0.7-1.8,1-2.7c0.3-1.5-0.5-2.9-1.9-3.5
				c-0.7-0.3-1.5-0.4-2.3-0.5c-4.5-0.1-9-0.2-13.4-0.3c-0.6,0-1.3,0-1.9,0.2c-2.2,0.4-3.7,2.1-3.7,4.3c0,0.9,0.3,1.9,0.6,2.8
				c0.9,2.4,1.3,4.9,1.4,7.5c0.1,2.1,0.2,4.2,0.5,6.2c0.4,3.4,0.1,6.7-1,9.9c-0.9,2.7-1,5.3-0.6,8c0.6,4.3,1.2,8.5,1.7,12.8
				c0.3,3,0.4,6,0.5,9.1c0.1,1.4-0.3,2.5-1.9,3c-2.2,0.6-2.4,2.3-2.2,4.2c0.3,3.2,1.8,4.9,5,5.6c1.6,0.3,3.2,0.4,4.8,0.5
				C317,964.4,320.6,964.5,324,964.6L324,964.6z M175.1,396.8c0,3.5,0,7,1,10.5c0.5,1.9,1.3,3.6,2.9,4.9c3.2,2.6,7.6,1.4,8.9-2.6
				c0.3-1.1,0.5-2.2,0.7-3.3c1.5-9.2,3.8-18.1,7-26.9c2.8-7.6,5.9-15.2,8.9-22.7c0.8-1.9,1.6-3.8,2.3-5.8c1.4-4.3,0.9-8.5-1-12.6
				c-1.3-2.7-2.8-3.5-5.8-2.8c-4.2,0.9-7.8,3-10.1,6.7c-1.6,2.6-3,5.3-4.2,8.1c-2.8,6.8-4.9,13.9-6.7,21
				C176.7,379.7,175.3,388.2,175.1,396.8L175.1,396.8z M500.2,364.3c-0.4-2.5-0.9-6-1.5-9.5c-1.1-6.5-2.5-12.9-4.8-19
				c-1.4-3.6-2.9-7.1-5.1-10.2c-1.1-1.6-2.4-3-4.2-3.8c-2.3-1-4.9-0.4-6.4,1.6c-1,1.3-1.4,2.9-1.1,4.5c0.3,1.6,0.7,3.1,1.1,4.7
				c1.5,5.4,2.8,10.8,3.5,16.4c0.5,4.3,1,8.6,1.7,12.8c0.4,2.5,1.1,5,1.9,7.4c0.8,2.3,2.5,4.1,4.8,5.2c2.9,1.4,5.6,0.9,7.8-1.5
				C499.6,370.7,500.2,368.1,500.2,364.3L500.2,364.3z M474.9,992.8c0-0.8,0.1-1.8,0-2.7c-0.4-3.5-3.8-5.5-7.1-4.2
				c-1.6,0.6-2.9,1.5-3.7,2.9c-0.8,1.5-1.7,3.1-2.1,4.8c-3.1,12.4,3.6,26.2,15.2,31.4c1.3,0.6,2.7,1,4.1,1.3
				c2.5,0.5,4.7-0.2,6.9-1.4c1.2-0.7,1.8-1.7,1.9-3.1c0.3-3.4-0.8-6.3-3.2-8.6c-1.6-1.5-3.4-2.9-5.2-4.1c-2.9-2-4.7-4.7-5.8-8
				C475.2,998.4,474.6,995.8,474.9,992.8L474.9,992.8z M82,593.5c0-1.8-0.4-3.5-1.5-5c-0.8-1.2-1.8-2.3-2.9-3.2
				c-5.3-4-11.2-6.2-17.8-5.9c-4.2,0.2-8.2,1.5-11.8,3.7c-1.6,1-3,2.4-3.8,4.2c-1.4,3.1-0.3,6.7,2.6,8.3c1.1,0.6,2.4,1,3.6,1
				c1.4,0.1,2.9-0.1,4.3-0.4c3.7-0.9,7-0.1,10,1.9c1.2,0.8,2.4,1.6,3.7,2.2c1.9,0.9,3.9,1.4,6.1,1.1C78.7,601,81.9,597.6,82,593.5
				L82,593.5z M199.1,401.4c0.2,1.2,0.4,3.1,0.8,4.9c0.2,0.9,0.7,1.8,1.2,2.6c2.6,3.5,7.5,2.9,9.2-1.1c0.2-0.4,0.3-0.9,0.4-1.4
				c2.3-6.9,4.6-13.9,7-20.8c0.4-1.2,0.9-2.4,1.2-3.6c1-3.8,0.7-7.6-0.6-11.3c-0.8-2.3-2.7-3-5-2c-0.4,0.2-0.8,0.5-1.3,0.7
				c-4.5,2.5-7.5,6.3-9.2,11.1C200.6,387.1,199.7,393.8,199.1,401.4L199.1,401.4z M71.5,555.1c-2.7,0.4-5.3,0.8-8,1.3
				c-1.2,0.3-2.4,0.8-3.5,1.5c-2,1.2-2.9,3.3-2.5,5.2c0.5,2.1,2.1,3.5,4.4,3.8c0.6,0.1,1.3,0.1,1.9,0.1c4-0.2,7.9,0.1,11.8,1.2
				c0.6,0.2,1.2,0.3,1.9,0.3c1.8,0.1,3.5-0.2,5-1.2c2.1-1.3,2.8-3.4,1.9-5.8c-0.9-2.4-2.7-3.9-5-4.9
				C76.9,555.6,74.2,555.2,71.5,555.1L71.5,555.1z M238.1,385c-0.1-1.3-0.1-2.5-0.2-3.8c0-0.5-0.1-0.9-0.3-1.4
				c-0.6-2.4-3-3.3-4.8-1.5c-1.8,1.8-3.3,3.9-4.8,6c-2.3,3.2-3.4,6.8-3.9,10.7c-0.2,1.8-0.2,3.5,0.4,5.2c0.9,2.5,2.6,3.8,4.9,3.9
				c2.4,0.1,4-1.2,4.8-3.3C236.2,395.6,238.4,390.6,238.1,385L238.1,385z M474.7,395c-2.5,0-4.7,0.8-6.5,2.4
				c-4.1,3.7-3.2,9.9,1.8,12.3c3.1,1.5,6.2,1.1,9-0.9c1.2-0.8,2.2-1.8,3.1-2.9c1.8-2.1,2-4.7,0.3-7C480.5,396.4,477.9,395,474.7,395
				z M83.2,547c1.3-0.4,2.9-0.7,4.3-1.2c1.2-0.5,1.7-2.1,1.2-3.3c-0.2-0.6-0.6-1.2-1-1.6c-2.7-2.7-5.9-4.3-9.7-4.7
				c-1.2-0.1-2.6,0.1-3.7,0.5c-2,0.7-3.1,2.4-3.1,4.4c0,2,1.1,3.7,3.3,4.2C77.3,546.1,80.2,546.5,83.2,547L83.2,547z M467.6,1033.4
				c0-0.2-0.1-0.7-0.3-1.2c-1.3-3.9-4.3-6.6-7.3-9.2c-0.3-0.3-0.9-0.4-1.3-0.5c-2.6-0.6-4.8,1.4-4.3,4.1c0.1,0.5,0.2,0.9,0.4,1.4
				c1.6,3.7,4.2,6.4,7.8,7.9c0.7,0.3,1.5,0.4,2.3,0.4C466.3,1036.4,467.7,1035,467.6,1033.4L467.6,1033.4z M90.2,520.6
				c-2.6,0-4.6,2-4.6,4.5c0,2.5,2,4.4,4.6,4.5c2.6,0.1,4.8-1.9,4.9-4.3C95.3,522.8,93,520.6,90.2,520.6z M261.9,385.9
				c-0.1-2.3-1.9-4.2-4.3-4.2c-2.4-0.1-4.6,2-4.7,4.4c-0.1,2.4,2,4.4,4.5,4.4C260,390.4,261.9,388.5,261.9,385.9L261.9,385.9z
				 M456.7,1037.6c-0.1-2.4-2-4.3-4.3-4.2c-2.4,0.1-4.5,2.3-4.4,4.7c0.1,2.4,2,4.2,4.4,4.1C454.9,1042.3,456.7,1040.2,456.7,1037.6
				L456.7,1037.6z M435.5,1045.5c2.2,0.1,4.3-1.8,4.4-4.1c0.1-2.3-1.8-4.3-4.1-4.3c-2.3-0.1-4.3,1.7-4.4,4
				C431.4,1043.4,433.3,1045.4,435.5,1045.5L435.5,1045.5z"/>
			<path d="M530.5,105.9c-0.1,6.7-0.1,13.4-0.4,20.1c-0.7,12.3-1.5,24.6-2.3,36.9c-0.7,10.4-1.5,20.7-2.3,31.1
				c-1.1,15.1-2.3,30.3-3.5,45.4c-0.8,10.5-1.5,21.1-2.3,31.6c-0.1,1-0.1,1.9-0.1,2.9c-0.1,1.5,0.4,2.7,1.4,3.9
				c1.8,2.2,3.5,4.6,5.2,6.9c0.3,0.4,0.2,0.9,0.3,1.4c-0.6,0.1-1.2,0.3-1.8,0.2c-6.9-1.6-13.7-3.3-20.5-4.8
				c-12.8-2.8-25.8-4.9-38.8-6.5c-10.2-1.2-20.3-2.5-30.5-3.5c-8.9-0.9-17.9-1.5-26.8-2c-23.8-1.3-47.6-1.6-71.5-0.9
				c-15.3,0.5-30.7,1.3-46,2.8c-20.5,2-41,4.7-61.1,9.2c-12.8,2.9-25.4,6.5-37.3,12.2c-0.3,0.2-0.9,0-1.2-0.2c-0.1,0-0.1-0.6,0-0.8
				c2.4-4.7,4.7-9.5,8.4-13.3c1.6-1.7,2.1-3.4,2-5.6c-0.6-8-1.1-16-1.6-23.9c-0.8-11-1.7-22-2.5-33c-0.8-10.7-1.7-21.4-2.5-32.1
				c-0.8-10.5-1.5-21.1-2.3-31.6c-0.6-8.5-1.1-16.9-1.5-25.4c-0.2-4.5-0.3-9-0.4-13.4c-0.1-2.1,0-4.2-0.2-6.2
				c-0.3-3.1,0.7-5.7,3.1-7.7c1.6-1.3,3.3-2.6,5-3.7c5.2-3.4,10.5-6.8,15.9-9.9c16.1-9.5,32.3-18.9,48.4-28.4
				c7-4.1,14-8.4,20.9-12.7c1-0.7,1.9-1.7,2.7-2.7c2.3-3.1,4.5-6.2,6.6-9.5c10.8-16.9,26.4-26.8,45.8-30.5c15.5-3,31.2-2.9,46.7,0.6
				c10.4,2.3,19.9,6.9,28.3,13.6c5.2,4.1,9.6,9,13.3,14.4c2.5,3.7,5.1,7.4,7.6,11.1c1,1.5,2.3,2.6,3.8,3.5
				c22.7,14.4,46.4,27,69.3,41.1c5.3,3.3,10.6,6.6,15.8,10c1.7,1.1,3.3,2.5,4.9,3.9C530,101.8,530.7,103.8,530.5,105.9L530.5,105.9z
				 M387.6,23.8c0.1-2-0.4-3.5-1.6-5.1c-0.8-1-1.8-1.9-2.4-3c-1.9-3.8-5.3-5.5-9.2-6.3c-3-0.6-6-1-9-1.1
				c-12.3-0.2-24.2,1.9-35.8,5.8c-5.2,1.8-10,4.2-14.6,7.2c-2.7,1.8-5.2,3.8-7.2,6.3c-0.9,1.1-1.7,2.3-2.3,3.6
				c-0.8,2-0.2,3.8,1.5,5.1c3.1,2.5,6.3,3.4,10.2,2c3-1.1,6.2-1.7,9.3-2.2c6.6-1.1,13.3-1.5,20-1.8c4-0.2,8-0.1,12-0.3
				c6.9-0.3,13.7-0.8,20.4-2.8c1.8-0.5,3.6-1.3,5.3-2.2C386.4,28,387.5,26.1,387.6,23.8L387.6,23.8z M304.5,236.1
				c-5.5,0.3-12.8,0.4-19.9,1.1c-8.9,0.9-17.8,2.1-26.6,3.4c-11.7,1.7-23.3,4.1-34.8,6.5c-4,0.8-4.6,2.1-3.8,6
				c0.1,0.3,0.1,0.6,0.2,0.9c0.3,1.6,1.5,2.5,3,2.6c0.9,0.1,1.9,0,2.8-0.2c4.4-0.9,8.8-1.8,13.1-2.7c10-2.1,20-4.3,30.2-5.5
				c8.7-1,17.5-2,26.2-2.9c13.8-1.4,27.7-2.4,41.6-2.7c2.7-0.1,5.4-0.1,8.1-0.3c1.1-0.1,2.3,0.2,3-0.9c0.4-0.6-1-1.4-2.9-1.8
				C332,236.9,319.1,236.3,304.5,236.1L304.5,236.1z M401.7,190.6c14.6,0,29.1,1.4,43.5,3.4c17.7,2.5,35.3,6.1,52.5,11
				c1.4,0.4,2.8,0.7,4.2,1c0.2,0,0.5-0.3,0.7-0.4c-0.1-0.1-0.2-0.3-0.3-0.4c-1-0.4-2.1-0.9-3.1-1.2c-6.7-2.1-13.4-4.2-20.1-6.2
				c-13.8-4.1-27.7-7.7-41.9-10.4c-9.9-1.9-19.9-3.3-29.9-4.2c-7.2-0.7-14.4-0.9-21.5-1.2c-1.1-0.1-2.2,0-3.3,0.1
				c-0.9,0.1-1.5,0.7-1.6,1.5c-0.1,1.1-0.2,2.3,0.1,3.3c0.7,3,2.3,4.1,5.5,4C391.4,190.8,396.6,190.7,401.7,190.6L401.7,190.6z
				 M319.7,103c7.7,0,12.9,0,18.2,0c1.3,0,2.6,0,3.8-0.1c0.4,0,1-0.4,1.1-0.8c0.1-0.4-0.2-0.9-0.6-1.2c-1.5-1.5-3.4-2.4-5.4-3
				c-5.8-1.8-11.8-3-17.9-2.4c-4.6,0.4-9.2,0.8-13.8,1.4c-12.5,1.7-24.9,3.8-37.3,6.5c-14.1,3.1-27.9,7-41.2,12.4
				c-1.5,0.6-2.9,1.3-4.3,2c-0.1,0.1-0.2,0.4-0.2,0.6c0,0,0.3,0.2,0.4,0.1c0.5-0.1,0.9-0.2,1.4-0.3c11.4-3.5,23.1-6.3,34.8-8.6
				c11.3-2.3,22.6-4,34.1-5C302.6,103.8,312.3,103.4,319.7,103L319.7,103z M218.4,211.2c0.3,4.7,0.5,8.7,1.8,12.5
				c0.6,1.6,1.4,3.2,2.3,4.6c1.2,1.7,3,2.3,5,2.1c3-0.3,4.9-3.2,3.4-5.9c-1.3-2.4-1.9-5-2.6-7.6c-0.9-3-2-6-3.1-9
				c-0.3-0.9-0.8-1.7-1.3-2.5c-0.6-1-1.6-1.6-2.8-1.4c-1.3,0.2-2,1.1-2.2,2.2C218.6,208.1,218.5,210,218.4,211.2L218.4,211.2z
				 M280.9,125.5c-0.5,0.1-1.7,0.1-2.7,0.4c-0.9,0.3-1.8,0.7-2.4,1.4c-2.8,3.5-5.3,7.2-6.8,11.4c-0.3,0.9-0.6,1.8-0.7,2.8
				c-0.2,2,1.1,3.7,2.9,4.5c1.6,0.6,3.5,0.1,4.7-1.3c0.5-0.6,0.9-1.3,1.3-2c1-1.8,2.1-3.6,2.8-5.5c1.2-3.1,2.1-6.3,3-9.5
				C283.5,126.2,282.9,125.4,280.9,125.5L280.9,125.5z M411.5,215.9c-0.1-1.5,0-2.3-0.2-3.1c-0.3-2.4-2-4.2-4.2-4.7
				c-1.9-0.4-4.1,0.6-5.2,2.6c-1.6,3-2.7,6.1-2.6,9.6c0,2.3,0.7,4.4,2.6,6c1.1,0.9,2.3,1.1,3.6,0.6c2.3-1,4-2.7,4.7-5.1
				C410.9,219.6,411.2,217.4,411.5,215.9L411.5,215.9z M237.1,206.7c-0.7,0.5-1.5,0.9-1.9,1.5c-0.4,0.6-0.6,1.5-0.6,2.2
				c0.1,4.2,1,8.2,3.1,11.9c0.5,0.9,1.4,1.8,2.3,2.4c1.8,1.2,4.2,0.7,5.5-1c1-1.2,1.1-2.7,0.5-4.1c-1.1-2.6-2.3-5.2-3.7-7.7
				c-0.7-1.4-1.7-2.7-2.8-3.9C239.1,207.4,238.1,207.2,237.1,206.7L237.1,206.7z M298.9,130.2c-0.1-0.5-0.1-1.3-0.3-2
				c-0.5-1.8-2.6-2.6-4.2-1.6c-0.4,0.3-0.8,0.6-1.1,0.9c-2.2,2.5-4,5.4-4.8,8.7c-0.3,1.2-0.3,2.5-0.2,3.8c0.3,2,2.1,3.3,4.1,3.2
				c1.8-0.1,3-1,3.7-2.6C297.7,137.3,298.6,134,298.9,130.2L298.9,130.2z M409.3,32.3c0.8-0.3,2.1-0.5,3.1-1.2
				c1.1-0.7,1.7-1.9,1.5-3.3c-0.6-3.7-4.3-7-7.9-7.2c-2.2-0.1-4.2,1-5,2.9c-0.8,1.8-0.5,4.2,1,5.7C403.9,31.2,406.2,32,409.3,32.3
				L409.3,32.3z M428.6,220.2c-0.1-0.4-0.2-1.4-0.5-2.3c-0.8-2.2-3.1-3-5-1.8c-2.3,1.4-3.7,3.5-4,6.2c-0.2,1.9,1,3.9,2.7,4.6
				c1.7,0.8,3.8,0.2,5.1-1.4C428,224.1,428.6,222.5,428.6,220.2L428.6,220.2z M251.9,214.2c0.2,1.9,1,4,2.9,5.6
				c1.4,1.2,3.5,1.2,4.9,0.3c1.4-1,1.8-2.9,1-4.7c-0.9-2.1-2.4-3.7-4.5-4.6C254,209.9,251.8,211.3,251.9,214.2L251.9,214.2z
				 M329.6,131.2c0-2.3-2-4.1-4.3-4c-2.2,0.1-3.8,1.8-3.8,4c0,2.4,1.9,4.1,4.3,4C328,135.1,329.7,133.3,329.6,131.2z M311.6,137
				c2.1,0,3.9-1.7,4-3.8c0.1-2.2-1.4-4-3.6-4.1c-2.3-0.1-4.3,1.7-4.3,4C307.7,135.1,309.5,136.9,311.6,137L311.6,137z M270.9,210.4
				c-2.2,0-3.9,1.8-3.9,4c0,2,1.6,3.5,3.8,3.4c2.2,0,4-1.8,4-3.9C274.6,211.9,272.9,210.3,270.9,210.4z M454.7,222.1
				c-2-0.1-3.7,1.4-3.9,3.4c-0.2,2.1,1.5,4,3.7,4.1c2.1,0.1,3.7-1.3,3.8-3.4C458.5,224,456.9,222.2,454.7,222.1L454.7,222.1z
				 M437.6,219.8c-1.9,0-3.6,1.6-3.7,3.6c-0.1,2,1.4,3.7,3.3,3.9c2.2,0.2,4-1.5,3.9-3.8C441.2,221.5,439.6,219.8,437.6,219.8
				L437.6,219.8z"/>
			<path d="M373.4,715.1c7.5,0,15-0.1,22.5,0c4.2,0.1,8.3,0.4,12.4,1.4c10.4,2.5,18.1,8.5,23.3,17.7c3.6,6.4,5.5,13.3,6.4,20.4
				c2.4,18-3.2,33.8-13.8,48c-3.6,4.8-8.5,7.7-14.6,8.2c-5.1,0.4-10.2,1-15.3,1.3c-13.7,0.9-27.4,2.3-41.2,2.1
				c-6.2-0.1-12.5-0.4-18.7-0.8c-3.4-0.2-6.6-0.9-9.8-2.1c-4.8-1.7-8.2-5-9.9-9.8c-0.9-2.4-1.5-4.9-2-7.4c-0.5-3.1-0.9-6.3-1.1-9.5
				c-0.8-14.2-1.3-28.4-1.1-42.7c0-2.9,0.2-5.7,0.9-8.6c1.1-4.4,3.5-7.9,7.5-10.1c1.9-1.1,4-2.1,6.1-2.8c9-2.8,18.2-4.9,27.7-5
				c6.9-0.1,13.7-0.5,20.6-0.7L373.4,715.1L373.4,715.1z"/>
			<path d="M311.6,611.5c-0.2-3.8-0.5-7.7-0.7-11.5c-0.1-1.8-0.2-3.5-0.1-5.3c0.6-9.4,1.2-18.8,1.8-28.2c0.2-3.2,1.5-5.8,4-7.9
				c2.2-1.8,4.6-2.8,7.5-2.5c6.7,0.6,13.4,1.1,20.1,1.7c8.4,0.8,16.9,1.6,25.3,2.6c8.1,0.9,16.2,2.1,24.2,3.2c3.3,0.5,6.6,1,9.9,1.5
				c1.4,0.2,2.8,0.5,4.2,0.8c9.1,2.2,12.9,8.1,13.7,15.3c1,8.6,0.7,17.3-2,25.6c-2.6,8.2-7.4,14.8-14.4,19.8
				c-1.8,1.3-3.7,2.5-5.7,3.5c-13.4,6.6-27.4,11.5-42.3,13.2c-10,1.1-20.1,1.2-30.2,1.4c-6.4,0.1-13.7-4.4-14.4-13.8
				c-0.4-6.5-0.8-13.1-1.1-19.6L311.6,611.5L311.6,611.5z"/>
			<path d="M250.6,663c0-2.9-0.1-5.7,0-8.6c0.1-3.7,0.3-7.3,0.5-11c0.1-2.6,0.5-5.1,1.4-7.5c1-2.7,2.6-4.7,5.3-5.8
				c2.9-1.1,5.3-0.7,7.4,1.6c1.5,1.5,2.4,3.4,2.9,5.5c0.4,1.9,0.8,3.8,0.9,5.7c0.6,11.3,1.5,22.6,1,34c-0.2,4.1-0.5,8.3-1,12.4
				c-0.3,2.3-1,4.7-1.9,6.9c-1.4,3.2-3.5,3.9-6.6,2.4c-5.7-2.7-8.9-7.2-9.4-13.4c-0.2-3-0.1-6.1-0.1-9.1c0-4.3,0-8.6-0.1-12.9
				L250.6,663L250.6,663z"/>
			<path d="M272.5,799.7c-0.1,9-2.4,17.3-6.7,25.2c-2.1,3.8-5.4,5.3-9.4,5.7c-2.9,0.3-5.3-1.1-6.8-3.6c-0.6-0.9-1-2-1.3-3.1
				c-1.6-5.7-3.2-11.3-4.8-17c-0.4-1.4-0.4-2.8,0-4.2c1.7-5.7,3.4-11.3,5-17c1.4-4.7,4.9-6.8,9.4-7.8c1.7-0.4,3.2-0.1,4.6,0.8
				c2.9,1.8,5.3,4.2,7.4,6.7c0.7,0.8,1.1,2,1.2,3C271.6,792.1,272,795.9,272.5,799.7L272.5,799.7z"/>
			<path d="M454.8,817.8c0.3-2.1,0.6-4.8,1.2-7.4c1-4.4,2.9-8.4,5.2-12.3c1-1.7,2.2-3.1,3.8-4.2c1.5-0.9,3.1-0.9,4.4,0.2
				c1.7,1.4,3.4,3,4.1,5.2c1.1,3.6,2.1,7.3,1.4,11.2c-0.4,2.5-0.8,5-1.4,7.5c-1,4.7-4.2,7.8-8,10.2c-1,0.6-2.4,0.9-3.6,1
				c-2.2,0.2-4-0.7-5.2-2.7C455.2,824.2,455.2,821.3,454.8,817.8L454.8,817.8z"/>
			<path d="M453.8,633.1c-0.3,0.4-0.6,1.1-1.2,1.6c-0.5,0.4-1.3,0.4-1.6-0.2c-0.4-0.6-0.6-1.4-0.5-2.2c0-1.1,1-1.8,1.9-1.6
				C453.2,630.9,453.9,631.9,453.8,633.1L453.8,633.1z"/>
			<path d="M452.9,952.7c-1.9,0-3.8,0.1-5.7,0c-1.8-0.1-3-1.2-3.2-3c-0.3-3.2-0.4-6.3-0.4-9.5c0-1.8,1-3,2.8-3.4
				c1.4-0.3,2.8-0.7,4.2-0.8c2.4-0.2,4.8-0.2,7.1-0.2c6.1,0.1,7.6,4,7.8,8.2c0.1,2.4-0.8,4.7-2.3,6.6c-0.9,1.2-2.2,1.7-3.7,1.8
				c-2.2,0.2-4.4,0.2-6.7,0.4L452.9,952.7L452.9,952.7z"/>
			<path d="M443.7,916.1c0-0.8,0-1.1,0-1.4c0.4-6.5-0.2-6.8,6.8-6c3,0.3,6,0.6,9,1.1c2.2,0.3,3.3,1.7,3.3,3.9c0,3.3-1.2,5.8-4.2,7.4
				c-3.8,1.9-7.8,2.4-12,2.2c-1.4-0.1-2.3-0.9-2.5-2.4C443.8,919.1,443.7,917.4,443.7,916.1L443.7,916.1z"/>
			<path d="M436.4,927.6c-0.2,1.2-0.4,2.8-0.7,4.3c0,0.2-0.5,0.4-0.7,0.5c-0.3,0-0.6-0.1-0.8-0.3c-0.2-0.2-0.5-0.5-0.5-0.8
				c-0.5-3-0.6-6-0.1-9c0.1-0.3,0.7-0.9,0.9-0.8c0.5,0.2,1.3,0.6,1.4,1C436.1,924.1,436.2,925.6,436.4,927.6L436.4,927.6z"/>
			<path d="M436.7,950.8c-0.3,1.1-0.7,2.5-1.2,3.8c-0.2,0.4-1,0.8-1.5,0.8c-0.3,0.1-0.9-0.4-1.1-0.7c-1.2-2.3-1.1-4.6,0.1-6.8
				c0.2-0.4,1.1-0.8,1.6-0.7c0.5,0,1.2,0.5,1.5,1C436.4,948.9,436.4,949.8,436.7,950.8L436.7,950.8z"/>
			<path d="M471.9,952.4c-0.2,0.6-0.5,1.5-0.9,2.3c-0.2,0.3-0.8,0.6-1.2,0.6c-0.3,0-0.8-0.5-0.8-0.9c-0.3-1.3-0.1-2.5,0.7-3.6
				c0.2-0.3,0.8-0.6,1.1-0.6c0.3,0.1,0.6,0.6,0.8,0.9C471.8,951.4,471.8,951.8,471.9,952.4L471.9,952.4z"/>
			<path d="M408.2,925.4c-0.1,1.8-0.1,3.5-0.3,5.3c-0.1,0.8-0.4,1.5-0.8,2.2c-0.2,0.3-0.8,0.5-1.2,0.5c-0.2,0-0.6-0.3-0.7-0.5
				c-0.2-0.4-0.5-0.9-0.5-1.3c0-4.1,0-8.3,0.1-12.4c0-0.6,0.4-1.2,0.6-1.8c0.1-0.3,0.5-0.6,0.6-0.6c0.4,0.1,1,0.4,1.1,0.7
				C408.3,920,408.4,922.7,408.2,925.4L408.2,925.4z"/>
			<path d="M377.2,904.2c-1.1-0.1-1.9-1.3-1.7-2.4c0.2-1,1.2-1.7,2-1.5c1.1,0.2,2,1.4,1.7,2.4C379,903.6,378.1,904.3,377.2,904.2
				L377.2,904.2z"/>
			<path d="M270,952.8c-1.7,0-3.5,0.1-5.2,0c-2.4-0.2-3.6-1.1-3.8-3.5c-0.3-3.2-0.3-6.3-0.3-9.5c0-1.4,1-2.3,2.3-2.8
				c0.9-0.3,1.8-0.6,2.8-0.7c3.2-0.2,6.3-0.5,9.5-0.4c4.7,0.2,7.2,2.9,7.3,7.6c0,1.5-0.3,3.2-0.8,4.6c-0.9,2.8-2.9,4.5-6,4.5
				c-1.9,0-3.8,0.2-5.7,0.2L270,952.8L270,952.8z"/>
			<path d="M260.8,915.1c0-7.5,0.3-7.2,6.7-6.5c3,0.3,6,0.6,9,1.1c2.4,0.4,3.2,1.5,3.3,3.9c0.1,3.6-1.3,6.1-4.6,7.6
				c-3.6,1.7-7.3,2.1-11.1,2c-1.9,0-2.8-0.9-3.1-2.9c-0.1-0.5-0.1-0.9-0.1-1.4C260.8,917.7,260.8,916.4,260.8,915.1L260.8,915.1z"/>
			<path d="M250.1,926.8c0.1-1.4,0.2-2.9,0.4-4.2c0.1-0.4,0.8-0.9,1.3-1.1c0.2-0.1,0.9,0.5,0.9,0.8c0.7,3.1,1,6.3,0.1,9.4
				c-0.1,0.3-0.4,0.7-0.6,0.6c-0.4,0-1-0.2-1.2-0.5c-0.4-0.5-0.7-1.1-0.7-1.7c-0.1-1.1,0-2.2,0-3.3L250.1,926.8L250.1,926.8z"/>
			<path d="M253.7,950.5c0,1.8-0.4,3.3-1.5,4.6c-0.5,0.6-1.7,0.5-2.1-0.1c-1.5-2.4-1.4-4.8,0-7.2c0.5-0.8,1.9-0.9,2.5-0.2
				C253.5,948.5,253.7,949.2,253.7,950.5L253.7,950.5z"/>
			<path d="M289.2,952.4c-0.3,0.6-0.7,1.6-1.2,2.5c-0.2,0.3-0.8,0.5-1.2,0.4c-0.4-0.1-0.7-0.6-0.8-1c-0.4-1.3,0.2-2.4,0.8-3.5
				c0.2-0.3,0.8-0.7,1.1-0.6c0.4,0.1,0.7,0.6,0.9,0.9C289,951.3,289,951.6,289.2,952.4L289.2,952.4z"/>
			<path d="M314.6,924.2c-0.8-7.6-0.4-15.4-0.2-23.2c0-1.1,0.3-2.2,0.5-3.3c0.1-0.3,0.5-0.7,0.6-0.6c0.4,0.2,1,0.5,1.1,0.8
				c0.2,1.1,0.3,2.2,0.2,3.3c-0.9,8-0.5,16-0.5,24c0,7.4-0.1,14.7-0.2,22.1c0,1.4,0.1,2.9-0.8,4.1c-0.1,0.1-0.3,0.3-0.4,0.3
				c-0.3-0.1-0.7-0.3-0.7-0.5c-0.2-1.2-0.4-2.5-0.4-3.8c0.2-6.7,0.5-13.4,0.8-20.1C314.7,926.4,314.6,925.4,314.6,924.2z"/>
		</g>
	</g>
</g>
</svg>
