<svg width="48" height="38" viewBox="0 0 48 38" fill="none" xmlns="http://www.w3.org/2000/svg">
<path d="M42.9237 17.4255C42.9237 17.4255 45.3885 17.8427 45.8071 15.377C46.2239 12.9134 43.7592 12.4963 43.7592 12.4963L28.9215 10.0411L28.8475 10.3176L28.2004 12.7324L27.6236 14.8853L42.9237 17.4255Z" fill="#8842B3"/>
<path d="M17.7695 31.9371C16.4909 31.5945 15.7322 30.2822 16.0748 29.0035L16.1292 28.8007C16.4718 27.5221 17.785 26.7649 19.0636 27.1075L24.0937 28.4553C25.3723 28.7979 26.131 30.1102 25.7884 31.3889L25.7341 31.5917C25.3914 32.8704 24.0782 33.6275 22.7996 33.2849L17.7695 31.9371Z" fill="#8842B3"/>
<path d="M29.7935 26.1002C30.1507 24.7673 29.3587 23.3956 28.0257 23.0384L24.6715 22.1396C23.8116 22.6973 22.7349 22.9148 21.6652 22.6282C20.756 22.3846 20.0278 21.818 19.5409 21.0949C18.6856 21.307 17.9637 21.9534 17.7194 22.865C17.3622 24.198 18.1542 25.5697 19.4872 25.9269L26.7316 27.868C28.0646 28.2252 29.4363 27.4332 29.7935 26.1002Z" fill="#8842B3"/>
<path d="M14.8741 28.6546L14.9145 28.5036C15.2458 27.2673 16.1724 26.3496 17.3034 25.9732C17.1234 25.7658 16.9745 25.5344 16.8427 25.292C16.803 25.218 16.7731 25.1414 16.7383 25.0635C16.6585 24.8881 16.5899 24.7092 16.5367 24.5216C16.511 24.4292 16.4888 24.3379 16.4701 24.2436C16.4321 24.0522 16.4114 23.859 16.4035 23.6615C16.401 23.5742 16.3915 23.4888 16.3945 23.4003C16.4024 23.1151 16.4351 22.8288 16.5118 22.5427C16.5884 22.2565 16.7044 21.9977 16.8395 21.7492C16.8847 21.663 16.9385 21.5829 16.9914 21.5013C17.0888 21.3501 17.1976 21.2098 17.3136 21.0765C17.3884 20.9904 17.4593 20.9046 17.5412 20.8256C17.715 20.66 17.9013 20.5106 18.1018 20.3805C18.3893 20.1962 18.693 20.0433 19.0194 19.9405L19.0221 19.9451C18.9483 19.6652 18.6901 19.2428 19.0136 18.0354L19.8344 14.9722C17.601 16.7148 14.0343 17.3482 10.4 16.3744C10.0667 16.2851 9.86842 15.9434 9.95803 15.6089C10.0473 15.2757 10.3903 15.0777 10.7235 15.167C15.3829 16.4155 19.8829 14.7911 20.7525 11.5455L20.793 11.3946C20.8823 11.0614 21.2252 10.8634 21.5584 10.9527C21.8917 11.042 22.0897 11.3849 22.0004 11.7181L21.5151 13.5293L20.221 18.3589C19.8635 19.6931 20.6555 21.0648 21.9884 21.422C23.3214 21.7791 24.6931 20.9872 25.0506 19.653L27.6385 9.99493C27.6492 9.95509 27.6492 9.91628 27.6572 9.87699C27.6768 9.78909 27.6917 9.69989 27.7017 9.6094C27.7097 9.5313 27.7146 9.45498 27.7159 9.37768C27.7157 9.29611 27.7129 9.21511 27.706 9.13434C27.6995 9.05236 27.6888 8.97183 27.674 8.89153C27.6587 8.81365 27.6399 8.73875 27.6187 8.66319C27.597 8.5849 27.5731 8.50991 27.5429 8.43451C27.5126 8.35911 27.4781 8.28514 27.4417 8.21328C27.4058 8.14415 27.3694 8.07743 27.3274 8.01184C27.2831 7.94045 27.2348 7.87444 27.1829 7.80747C27.1348 7.74541 27.0833 7.68633 27.0288 7.62902C26.9722 7.56985 26.9143 7.51551 26.8524 7.46141C26.7885 7.40545 26.7196 7.35335 26.6489 7.30334C26.6138 7.27971 26.5855 7.25012 26.5492 7.22617L22.572 4.75509C22.2009 4.52235 20.4679 3.57143 20.0596 3.55001C14.2531 1.99418 6.69684 6.04654 4.84822 12.9457C2.73303 20.8397 7.33236 28.9386 15.1379 31.2151C14.7606 30.4449 14.635 29.5468 14.8741 28.6546Z" fill="#8842B3"/>
<path d="M25.9344 21.1839L28.3492 21.8309C29.6822 22.1881 31.0539 21.3961 31.4111 20.0632C31.7683 18.7302 30.9763 17.3585 29.6433 17.0013L27.2285 16.3542L25.9344 21.1839Z" fill="#8842B3"/>
</svg>
